<svg width="71" height="71" viewBox="0 0 71 71" fill="none" xmlns="http://www.w3.org/2000/svg">
<path d="M54.2207 58.5195C54.2207 55.9818 55.4688 54.3594 56.3008 54.3594L52.4005 52.2793H35.5H20.9395C18.6418 52.2793 14.6992 56.2219 14.6992 58.5195C14.6992 60.8169 18.6418 64.7598 20.9395 64.7598H35.5H51.9457L56.3008 62.6797C55.4686 62.6797 54.2207 61.0572 54.2207 58.5195Z" fill="#FFF5F5"/>
<path d="M56.3008 62.6797C55.4688 62.6797 54.2207 61.0572 54.2207 58.5195C54.2207 55.9818 55.4688 54.3594 56.3008 54.3594L52.4005 52.2793H35.5V64.7598H51.9457L56.3008 62.6797Z" fill="#EFE2DD"/>
<path d="M56.3008 62.6797H35.5H20.9395C18.6418 62.6797 16.7793 60.8169 16.7793 58.5195C16.7793 56.2219 18.6418 54.3594 20.9395 54.3594L18.8594 50.1992C15.4063 50.1992 12.6191 57.1465 12.6191 60.5996C12.6191 64.0524 15.4063 66.8398 18.8594 66.8398H35.5H56.3008C57.4658 66.8398 58.3809 65.9245 58.3809 64.7598C58.3809 63.5948 57.4658 62.6797 56.3008 62.6797Z" fill="#974A32"/>
<path d="M58.3809 64.7598C58.3809 63.5948 57.4658 62.6797 56.3008 62.6797H35.5V66.8398H56.3008C57.4658 66.8398 58.3809 65.9245 58.3809 64.7598Z" fill="#974A32"/>
<path d="M41.7402 50.1992H35.5H29.2598C28.11 50.1992 27.1797 51.1296 27.1797 52.2793V68.9199C27.1797 69.6878 27.6022 70.3926 28.2787 70.7543C28.953 71.1158 29.7778 71.0752 30.4137 70.6507L35.5 67.2603L40.5865 70.6506C41.2314 71.0804 42.0543 71.1119 42.7215 70.7541C43.3978 70.3926 43.8203 69.6878 43.8203 68.9199V52.2793C43.8203 51.1296 42.89 50.1992 41.7402 50.1992Z" fill="#17B582"/>
<path d="M42.7213 70.7543C43.3978 70.3926 43.8203 69.6877 43.8203 68.9199V52.2793C43.8203 51.1296 42.89 50.1992 41.7402 50.1992H35.5V67.2603L40.5865 70.6506C41.2313 71.0804 42.0543 71.1119 42.7213 70.7543Z" fill="#195E60"/>
<path d="M56.3008 0H35.5H20.9395C16.3634 0 12.6191 3.744 12.6191 8.32031V60.5996C12.6191 57.1465 15.4063 54.3594 18.8594 54.3594H35.5H56.3008C57.4658 54.3594 58.3809 53.444 58.3809 52.2793V2.08008C58.3809 0.915096 57.4658 0 56.3008 0Z" fill="#CB684A"/>
<path d="M58.3809 52.2793V2.08008C58.3809 0.915096 57.4658 0 56.3008 0H35.5V54.3594H56.3008C57.4658 54.3594 58.3809 53.444 58.3809 52.2793Z" fill="#974A32"/>
<path d="M44.9297 18.8594H43.8203V17.75C43.8203 16.6003 42.89 15.6699 41.7402 15.6699C40.5905 15.6699 39.6602 16.6003 39.6602 17.75V18.8594H38.6895C37.5397 18.8594 36.6094 19.7897 36.6094 20.9395C36.6094 22.0892 37.5397 23.0195 38.6895 23.0195H39.6602V23.9902C39.6602 25.14 40.5905 26.0703 41.7402 26.0703C42.89 26.0703 43.8203 25.14 43.8203 23.9902V23.0195H44.9297C46.0794 23.0195 47.0098 22.0892 47.0098 20.9395C47.0098 19.7897 46.0794 18.8594 44.9297 18.8594Z" fill="#FABE2C"/>
<path d="M48.8702 27.6408C48.1531 27.1858 47.235 27.2121 46.5504 27.7037C45.1202 28.7214 43.4587 29.2598 41.7402 29.2598C39.2432 29.2598 37.0261 28.1318 35.5 26.3852C34.2216 24.922 33.4199 23.0313 33.4199 20.9394C33.4199 19.2209 33.9582 17.5593 34.976 16.1292C35.4676 15.4406 35.492 14.5224 35.0389 13.8094C34.588 13.0944 33.7572 12.7247 32.9121 12.875C25.975 14.1243 20.9395 20.1411 20.9395 27.1797C20.9395 35.2075 27.4721 41.7402 35.5 41.7402C42.5386 41.7402 48.5554 36.7046 49.8046 29.7676C49.9549 28.9347 49.5852 28.0938 48.8702 27.6408Z" fill="#FED843"/>
<path d="M49.8046 29.7676C49.9549 28.9347 49.5852 28.0938 48.8702 27.6408C48.1531 27.1858 47.235 27.2121 46.5503 27.7037C45.1202 28.7214 43.4587 29.2598 41.7402 29.2598C39.2432 29.2598 37.0261 28.1318 35.5 26.3852V41.7402C42.5386 41.7402 48.5553 36.7046 49.8046 29.7676Z" fill="#FABE2C"/>
</svg>
