<svg width="75" height="76" viewBox="0 0 75 76" fill="none" xmlns="http://www.w3.org/2000/svg">
<path d="M33.5688 75.5675C32.0849 74.7283 30.7681 72.6383 30.5551 70.784C30.4902 70.2191 30.3737 69.6544 30.2963 69.5291C30.2188 69.4038 30.1252 68.586 30.0881 67.7118C30.0511 66.8375 29.9428 66.048 29.8476 65.9573C29.7523 65.8665 29.4385 66.125 29.1502 66.5317C28.862 66.9384 28.058 67.8411 27.3637 68.5378C25.7431 70.164 24.6311 70.4242 22.8913 69.5842C22.2476 69.2734 21.3776 68.6562 20.9579 68.2126C19.9746 67.1732 18.9272 65.1482 18.7277 63.9007C18.59 63.0393 18.5049 62.9381 18.0206 63.0596C17.7178 63.1356 16.6151 63.325 15.5701 63.4804C13.0578 63.854 11.2479 63.359 9.21279 61.7417C8.43379 61.1226 7.796 60.5222 7.7955 60.4076C7.79499 60.2929 7.59643 59.9047 7.35424 59.5449C6.4431 58.1911 5.83574 55.6157 5.79153 52.9185C5.74818 50.2731 6.06084 47.7191 6.47928 47.3007C6.78162 46.9983 6.74397 46.9293 6.20275 46.7934C5.85815 46.7069 5.28775 46.7086 4.93518 46.7971C2.70564 47.3566 0.540017 44.5693 0.0294656 40.483C-0.146379 39.0756 0.48832 35.7177 1.30231 33.7491C2.32746 31.2698 2.764 30.4411 3.04974 30.4317C3.51375 30.4165 3.42157 31.187 2.81319 32.4088C2.02555 33.9906 1.6591 35.4501 1.4767 37.7317C1.19216 41.291 2.04986 43.2388 3.90169 43.2388C4.92191 43.2388 6.56215 42.6644 6.56215 42.3071C6.56215 42.1875 6.8152 41.9543 7.1245 41.7887C7.43378 41.6232 8.22898 40.8003 8.89161 39.9601C10.1378 38.3799 15.8677 32.64 16.1989 32.64C16.302 32.64 16.5491 32.4772 16.7481 32.2782C17.2055 31.8208 21.3437 29.6821 21.7714 29.6821C22.2323 29.6821 22.1709 29.2283 21.4511 27.3151C20.8072 25.6035 20.4746 24.3713 20.2274 22.7805C20.0154 21.4163 19.5662 19.9793 19.2234 19.5691C18.9647 19.2594 19.0031 18.9187 19.4386 17.6588C19.7301 16.8155 20.1046 16.1254 20.2709 16.1254C20.4372 16.1254 20.8869 16.6321 21.2703 17.2513C21.6538 17.8705 22.3252 18.866 22.7624 19.4636C23.6908 20.7328 24.0414 21.7927 23.5347 21.7984C23.3506 21.8005 23.0527 21.8955 22.8728 22.0095C22.4591 22.2718 22.7878 23.6027 23.8111 25.808C24.6493 27.6145 25.7693 28.7724 27.4232 29.5422C28.0828 29.8493 29.0385 30.4704 29.5469 30.9226C30.4307 31.7086 30.4712 31.813 30.4712 33.3015C30.4712 34.7517 30.4332 34.8583 29.9166 34.8582C29.6116 34.8581 28.752 34.6219 28.0064 34.3333C26.9333 33.9179 26.1368 33.8115 24.1858 33.8231C21.449 33.8393 20.0065 34.2464 17.9033 35.5959C16.3643 36.5835 16.2263 36.7646 15.9092 38.2121C15.2057 41.4232 15.4124 41.9112 16.5188 39.6517C17.293 38.0705 17.6752 37.8336 18.3849 38.4947C18.6653 38.756 19.1691 39.1165 19.5044 39.296C20.0346 39.5798 20.1786 39.5639 20.6094 39.174C20.8819 38.9274 21.1053 38.6042 21.106 38.4558C21.1067 38.3073 21.358 37.8725 21.6645 37.4895L22.2218 36.7931L23.5551 37.4895C25.4822 38.496 25.5553 38.7287 24.4618 40.3761C23.9566 41.1372 23.466 41.7595 23.3716 41.759C23.2772 41.7585 22.8367 41.5366 22.3929 41.266C21.949 40.9954 21.4302 40.774 21.24 40.774C20.8678 40.774 20.2475 41.4995 19.5773 42.7188L19.159 43.4798L17.667 42.591C16.8465 42.1022 16.2384 41.5862 16.1751 41.4846C15.8391 40.9455 15.4419 40.8534 15.3465 41.6367C15.3201 41.8529 15.2734 42.8986 15.3574 43.989C15.5554 46.5557 16.3623 47.9518 18.09 48.7166C18.7314 49.0005 19.5867 49.2715 19.9906 49.3187C22.8575 49.6905 25.2542 48.9741 27.8303 46.937C28.8701 46.0714 28.9478 45.8184 28.3839 45.0729C27.6887 43.6371 26.9727 42.2148 26.0349 40.8977C25.5961 40.369 26.2526 37.4824 26.8372 37.3698C27.1059 37.318 27.9678 37.9753 29.1447 39.1295C30.8943 40.8455 31.2274 41.5134 30.3334 41.5134C29.749 41.5134 29.9292 42.1659 30.7367 42.9734C31.7695 44.3622 32.473 43.3329 33.5735 42.4451C34.308 41.7524 34.415 41.4983 34.415 40.4474C34.415 39.2048 33.6982 37.4462 32.589 35.9675C32.056 35.257 32.0469 35.1613 32.3541 33.5229C32.5299 32.585 32.7677 31.7238 32.8825 31.609C32.9972 31.4943 33.5147 31.9849 34.0325 32.6993C35.4591 34.6678 37.2321 35.3305 41.4697 35.4793C43.296 35.5434 43.8397 35.4863 43.9421 35.2194C44.0143 35.0313 43.9245 33.9773 43.7425 32.8771L43.4117 30.8769L42.0058 30.7933C40.0946 30.6796 37.9845 30.0333 37.3536 29.3684C36.9071 28.8979 36.8509 28.6116 36.9596 27.3644C37.0438 26.3981 37.2605 25.6944 37.6046 25.2693C37.8896 24.9172 38.242 24.3249 38.3876 23.9529C38.5332 23.581 39.415 22.6186 40.3471 21.8144C41.2793 21.0101 41.7926 20.4185 41.7409 20.2518C41.6045 19.8123 41.3201 19.5363 40.3937 13.7838C40.1536 12.2926 39.8859 10.9616 39.7989 10.826C39.7119 10.6904 39.5131 9.52581 39.357 8.23792C39.201 6.95003 38.968 5.79094 38.8393 5.66215C38.7105 5.53336 38.6052 5.16919 38.6052 4.85288C38.6052 4.22619 39.7332 1.82931 40.0281 1.82931C40.1283 1.82931 40.3596 2.18979 40.5421 2.63038C40.7246 3.07098 41.3457 4.37426 41.9223 5.52658C42.499 6.6789 43.0394 7.90711 43.1234 8.25594C43.2073 8.60477 43.5561 9.30293 43.8984 9.80741C44.9248 11.3198 44.4964 12.1612 43.4001 10.7863C43.0965 10.4054 42.7566 10.2048 42.5898 10.3078C42.2716 11.5282 42.9972 17.335 43.7722 18.7079C44.9339 18.1664 46.9215 17.2951 48.0615 16.7401C49.0648 16.2169 49.7285 16.2821 50.4786 16.9777C51.0456 17.5034 51.1144 17.7232 50.9995 18.6414C50.9268 19.2234 50.7703 19.8049 50.6519 19.9336C50.5334 20.0624 50.4365 20.4164 50.4365 20.7202C50.4365 21.4628 50.0278 21.6731 49.7161 21.0907C49.2756 20.2676 47.9614 20.2227 46.145 20.9686L44.5209 21.6356L45.5103 27.1459L49.2567 27.0568C51.3172 27.0078 53.0901 26.8806 53.1966 26.7741C53.3031 26.6676 53.2234 25.7084 53.0194 24.6426C52.7557 23.5367 52.8247 22.4329 52.5354 21.3418C52.1937 20.1395 51.9961 18.8913 51.7876 16.6184C51.6446 15.0604 51.253 12.8961 50.9141 11.7918C50.7366 11.213 50.7959 10.6982 51.1633 9.63037C51.4286 8.85942 51.7221 8.10477 51.8157 7.95337C52.7873 9.11026 57.1618 17.5757 56.4613 18.2601C56.2616 18.3367 55.9046 18.1501 55.6505 17.8363C55.0844 17.1372 54.3996 17.3242 54.5403 18.1395C55.6761 24.7194 55.5031 25.7218 55.5733 26.0092C55.6633 26.3778 57.1807 26.7244 60.8581 26.5041C61.235 26.4815 61.2858 26.2774 61.2177 25.0586C61.174 24.2781 61.0726 23.5294 60.9923 23.3949C60.9121 23.2603 60.838 22.6478 60.8277 22.0337C60.8175 21.4196 60.6381 20.5081 60.4292 20.0081C60.2204 19.5082 60.0494 18.8771 60.0494 18.6057C60.0494 18.15 60.8313 16.5136 61.2715 16.0481C61.4871 15.8201 63.0073 17.9963 63.0073 18.5329C63.0073 18.726 63.1601 19.1784 63.347 19.5382C63.5338 19.898 63.8228 20.5252 63.9891 20.9319C64.1555 21.3386 64.4425 22.0041 64.6269 22.4108C64.8112 22.8175 65.0337 23.4564 65.1212 23.8304C65.2087 24.2045 65.3789 24.5716 65.4994 24.6461C65.7689 24.8126 65.7922 25.7384 65.5269 25.7384C65.4215 25.7384 65.1412 25.5118 64.9041 25.2349C64.4155 24.6642 63.9932 24.7929 63.9932 25.5125C63.9932 26.1415 64.6525 26.3694 67.0342 26.5639C68.7257 26.702 69.7439 26.982 71.1413 27.6929C71.3446 27.7964 71.9947 28.4718 72.5858 29.194C73.5534 30.376 73.6484 30.6071 73.5382 31.5118C73.3593 32.98 71.6861 35.8329 70.7715 36.229C70.3648 36.4052 69.1447 36.6403 68.0602 36.7514C66.6636 36.8945 66.1071 37.0459 66.1529 37.2703C66.2664 37.8279 66.7084 42.0181 67.0459 45.737C67.4782 50.5007 67.0081 55.9872 66.0618 57.2224C65.4629 58.0042 65.2364 57.0978 65.2469 53.9609C65.2523 52.3341 65.096 49.8385 64.8995 48.415C64.703 46.9916 64.5322 45.6605 64.5201 45.4572C63.9302 41.4415 64.6576 41.8549 62.3615 43.236C61.9711 43.4347 60.9861 44.0435 60.1727 44.5889C58.6995 45.5766 58.6941 45.5847 58.772 46.6779C58.8659 47.9952 58.399 50.8623 58.0152 51.3247C57.8642 51.5067 57.456 52.2287 57.108 52.9293C56.7601 53.6299 56.2463 54.315 55.9664 54.4518C55.6864 54.5885 55.4278 54.8113 55.3917 54.9469C55.2779 55.3734 53.3198 56.0279 52.1144 56.0423C50.5564 56.0608 49.3859 55.3307 48.3316 53.6825C47.8659 52.9545 47.3273 52.3588 47.1348 52.3588C46.9422 52.3588 46.2476 52.6236 45.5912 52.9473C44.5271 53.472 43.4571 53.9449 41.9328 54.5643C39.9167 55.3835 39.3447 55.6611 39.3447 55.8203C39.3447 55.9206 39.0951 56.0661 38.7901 56.1437C38.0912 56.3215 36.7458 57.4216 34.5287 59.6286C31.4192 62.7236 31.4169 62.7284 31.4288 66.0278C31.441 69.4104 31.8305 70.8114 33.0888 71.9981C34.1099 72.9611 34.4526 72.9944 35.7706 72.2584C36.5992 71.7957 36.94 71.3342 37.9059 69.3662C38.538 68.0784 39.1814 66.6919 39.3357 66.2852C39.7517 65.1885 43.0552 61.7859 44.3979 61.0711C46.1225 60.153 47.0129 60.3889 48.0792 62.0467C49.4892 64.2386 51.206 65.4225 52.9744 65.4225C53.5578 65.4225 54.1406 65.325 54.2694 65.2058C54.3981 65.0866 54.9026 64.8617 55.3904 64.7061C55.9152 64.5386 57.1225 63.6228 58.3482 62.4624C59.4872 61.3841 60.4854 60.4998 60.5663 60.4973C60.6472 60.4948 60.9754 60.2656 61.2955 59.988C61.6711 59.6622 62.1433 59.5093 62.6272 59.5567C63.3533 59.6278 63.3757 59.6671 63.3373 60.7979C63.2786 62.5274 62.8265 63.3529 61.7635 63.6713C61.2695 63.8194 60.538 64.2462 60.1381 64.6199C56.2767 68.2274 54.4906 69.3522 52.6093 69.3609C51.9742 69.3639 51.1879 69.2649 50.862 69.141C50.0756 68.842 48.2202 67.0349 47.3664 65.7363C46.5862 64.5498 45.3343 64.0971 44.5726 64.726C44.3408 64.9174 43.8292 65.2356 43.4358 65.4331C43.0423 65.6306 42.3569 66.1804 41.9126 66.6549C40.926 67.7085 39.3447 70.0461 39.3447 70.4509C39.3447 70.6135 39.2511 70.8519 39.1366 70.9807C39.0222 71.1095 38.6798 71.8446 38.3758 72.6143C38.0718 73.384 37.406 74.4655 36.8963 75.0175C36.1454 75.8309 35.8105 76.0171 35.1307 75.9988C34.6693 75.9864 33.9664 75.7923 33.5688 75.5675ZM25.1035 65.855C26.0949 65.2977 28.5522 63.0418 29.2388 62.0584C31.0107 59.5208 32.6532 57.4167 33.8512 56.1496C35.2349 54.6862 37.6258 53.0498 38.1097 52.8517C38.6156 52.5456 39.1264 52.0862 39.6331 51.8658C39.7918 51.8658 40.6514 51.5436 41.5434 51.1497C42.4354 50.7559 43.8049 50.1877 44.5867 49.887C45.3685 49.5863 46.0715 49.2377 46.149 49.1124C46.2265 48.9871 46.1565 48.3289 45.9936 47.6498C45.7617 46.6829 45.7634 45.9905 46.0019 44.4578C46.271 42.7279 46.422 42.3691 47.3018 41.3696C48.7806 39.6896 49.227 39.6014 50.4651 40.7446C52.1562 42.3061 52.5398 44.2864 51.7568 47.4133C51.534 48.3032 51.0903 49.3744 50.7708 49.7939C50.089 50.6893 50.057 50.9581 50.5709 51.472C51.3673 52.2684 52.7126 52.401 54.4742 51.8569C56.7617 51.1504 56.9475 50.8098 56.4975 48.1479C56.139 46.0265 55.9448 44.555 55.7358 42.3761C55.5263 40.1919 55.1957 38.5329 54.9135 38.2508C54.7109 38.0482 54.1133 38.0559 52.648 38.2802C51.5534 38.4478 49.7484 38.6473 48.6369 38.7235C47.5254 38.7997 46.5345 38.9872 46.4349 39.1402C46.3353 39.2931 46.2521 39.9003 46.25 40.4894C46.2461 41.6079 45.5815 43.0615 45.1442 42.9081C45.0047 42.8592 44.9113 42.5531 44.9365 42.2279C44.9618 41.9027 44.8764 41.0821 44.7468 40.4042L44.5112 39.1718L40.4886 39.1634L36.466 39.1551L36.1429 41.0121C35.7023 43.5439 35.5774 43.8193 34.2041 45.2862C33.0425 46.5271 33.0011 46.6231 32.8544 48.415C32.5855 51.7001 32.2069 52.5202 29.7924 55.0476C28.606 56.2894 27.3904 57.4403 27.0911 57.6051C26.7918 57.7699 25.461 58.635 24.1339 59.5276C22.8068 60.4202 21.305 61.3998 20.7967 61.7044C20.0076 62.1773 19.8724 62.3857 19.8724 63.129C19.8724 64.1725 20.6831 65.7092 21.4294 66.0804C22.3812 66.5536 24.0416 66.4518 25.1035 65.855ZM39.7704 49.8939C39.4257 49.6228 39.0344 49.4009 38.9008 49.4009C38.3605 49.4009 38.3947 48.5646 38.9755 47.5736C39.7476 46.2562 39.749 45.8547 38.9827 45.5056C38.2174 45.1569 36.8798 43.9773 36.8798 43.651C36.8798 43.5158 37.2241 42.8686 37.645 42.2128C38.4987 40.8825 39.0686 40.719 40.0841 41.5134C40.423 41.7785 40.8123 41.9979 40.9492 42.0009C41.086 42.0039 41.3335 42.2233 41.499 42.4885C41.7504 42.891 41.6967 43.1764 41.1734 44.2183C40.8287 44.9046 40.6095 45.6641 40.6864 45.9061C40.7632 46.1481 41.3246 46.5883 41.934 46.8844C43.0184 47.4112 43.2751 47.7488 42.81 48.0363C42.6824 48.1152 42.33 48.6763 42.0268 49.2833C41.4 50.5384 40.7972 50.7016 39.7704 49.8939ZM17.9855 59.2749C18.7118 58.9988 19.2222 57.9633 19.4803 56.2426C19.576 55.604 19.7589 55.017 19.8866 54.9381C20.0143 54.8591 20.1188 54.4809 20.1188 54.0976C20.1188 53.4551 20.0274 53.387 18.948 53.2253C18.3041 53.1288 17.7218 52.9765 17.654 52.8869C17.5862 52.7972 17.0845 52.435 16.5392 52.0819C15.6367 51.4976 15.055 50.6237 14.1805 48.5382C13.5296 46.9859 13.4019 42.9894 13.9444 41.1437C14.3193 39.8678 14.4806 38.5556 14.2625 38.5556C14.0018 38.5556 12.5223 39.9463 11.8616 40.8124C11.5904 41.1678 10.6754 42.194 9.82808 43.0928C8.98079 43.9916 8.28755 44.9274 8.28755 45.1724C8.28755 45.4173 8.01255 45.8761 7.67643 46.1918C7.13511 46.7004 7.10971 46.7984 7.454 47.0502C7.79423 47.299 7.80685 47.5707 7.55527 49.2304C6.78021 54.3435 8.77798 58.196 12.8475 59.4361C13.9255 59.7645 16.9469 59.6698 17.9855 59.2749ZM12.7243 54.8023C12.7243 53.7399 11.7684 50.8276 11.08 49.7927C10.7113 49.2383 10.0873 48.4351 9.69341 48.0079C9.1015 47.3658 9.00632 47.0984 9.14493 46.4673C9.53147 44.7074 10.958 46.1827 12.657 50.0994C13.0038 50.8989 13.1658 54.9572 12.863 55.26C12.7867 55.3363 12.7243 55.1303 12.7243 54.8023ZM22.4152 57.0212C23.0682 56.6259 23.6942 56.3025 23.8064 56.3025C23.9186 56.3025 24.3667 55.9698 24.8021 55.5631C25.8068 55.0033 26.6429 54.2361 27.5643 53.5238C28.0667 53.1494 29.0095 52.349 29.6594 51.7452C30.4602 50.7624 31.077 50.7033 31.3399 50.1307C31.4127 50.0129 31.4014 49.6342 31.3147 49.289C31.0604 48.2758 30.9694 48.3117 27.358 50.8513C26.7981 51.245 25.9939 51.6432 25.571 51.7361C24.6467 52.1004 23.8092 52.6175 22.8471 52.9721C21.6895 53.1677 21.2528 53.7383 20.7328 55.7347C20.5298 56.514 20.2977 57.3598 20.2169 57.6141C20.0933 58.0037 20.1615 58.05 20.6491 57.9082C20.9675 57.8156 21.7623 57.4164 22.4152 57.0212ZM50.0934 47.2442C50.5305 46.6684 50.5185 45.8378 50.0605 44.952C49.7601 44.3712 49.5244 44.2263 48.8897 44.2326C47.2461 44.2488 46.8007 45.291 47.7868 46.8133C48.2077 47.463 48.5131 47.6702 49.0537 47.6725C49.446 47.6742 49.9131 47.4818 50.0934 47.2442ZM62.5701 41.6906C63.8828 41.0744 63.9669 40.7793 63.4579 38.5744C63.1263 37.1378 63.277 37.1798 60.0158 37.614C57.4845 37.9511 57.6343 37.6397 58.2422 41.2996C58.2471 45.5417 59.7375 43.027 62.5701 41.6906ZM50.4365 34.9924C52.8838 34.838 54.684 34.4109 54.4543 34.0393C54.3574 33.8824 54.2483 33.3647 54.2119 32.8889C54.0835 31.2065 53.9523 30.9896 52.9665 30.8296C52.4562 30.7467 50.7314 30.7492 49.1335 30.8351L46.2284 30.9913L46.299 32.9758C46.3659 34.8583 46.4012 34.9688 46.9857 35.1251C47.3246 35.2157 47.8238 35.2492 48.0949 35.1995C48.366 35.1497 49.4198 35.0565 50.4365 34.9924ZM61.9914 33.5851C62.5241 33.3874 62.562 33.2725 62.4062 32.3259C62.3119 31.753 62.2348 31.0976 62.2347 30.8694C62.2346 30.0887 61.7149 29.9983 59.0635 30.3182C57.64 30.4899 56.4255 30.6389 56.3645 30.6492C56.3035 30.6596 56.3867 30.8012 56.5494 30.9639C56.712 31.1265 56.8451 31.7699 56.8451 32.3935C56.8451 33.0171 56.967 33.6492 57.1159 33.7981C57.4208 34.103 61.0198 33.9458 61.9914 33.5851ZM68.6549 32.8456C69.2641 32.8015 69.7024 32.7524 70.3101 32.64C70.661 32.64 70.6137 32.5076 70.0544 31.9237C69.3315 31.1692 66.3869 30.0543 65.5587 30.2215C65.2013 30.2936 65.1063 30.5292 65.1203 31.3084C65.1504 32.9746 65.2907 33.1279 66.7568 33.097C67.4737 33.0819 68.3278 32.9688 68.6549 32.8456ZM42.3641 26.4162C42.3302 26.3145 42.3025 25.7322 42.3025 25.1222C42.3025 23.7584 41.9267 23.6835 40.551 24.7731C39.503 25.6032 39.3579 26.0676 40.0225 26.4644C40.5 26.7495 42.4618 26.7091 42.3641 26.4162ZM56.725 72.8221C56.4737 72.4155 57.0209 71.6822 58.5061 70.4353C59.2872 69.7795 59.9632 69.1598 60.0084 69.0581C60.0536 68.9565 60.2305 68.8733 60.4015 68.8733C60.5725 68.8733 60.9238 68.6376 61.182 68.3495C61.7524 67.7132 65.1012 65.4225 65.461 65.4225C65.6027 65.4225 65.7186 65.6988 65.7186 66.0365C65.7186 66.5248 65.1068 67.1435 62.7333 69.056C61.0914 70.379 59.5108 71.6164 59.2209 71.8058C58.931 71.9953 58.3932 72.3558 58.0259 72.6069C57.2751 73.1202 56.9432 73.1752 56.725 72.8221ZM34.2685 65.7919C34.6623 65.4532 35.0647 65.176 35.1626 65.176C35.2605 65.176 36.1584 64.4077 37.1578 63.4687L38.975 61.7615L38.2971 61.052C37.8182 60.5508 37.6193 60.0858 37.6193 59.4677C37.6193 57.8059 39.4336 56.6731 40.4566 57.6961C40.753 57.9926 40.8443 58.4464 40.7912 59.3599C40.7498 60.0732 40.8579 60.8681 41.0415 61.1994C41.3135 61.6903 41.3069 61.8405 40.9997 62.1478C40.7178 62.4296 40.5198 62.4513 40.1307 62.2431C39.5245 61.9187 38.9193 62.1098 38.7374 62.6831C38.3808 63.8065 35.0521 66.4089 33.9728 66.4081C33.6552 66.4079 33.7276 66.2571 34.2685 65.7919ZM39.9609 59.3802C39.9609 59.0294 39.7688 58.8685 39.2831 58.8126C38.5523 58.7285 38.3678 59.1708 38.9082 59.7112C39.3441 60.1471 39.9609 59.9532 39.9609 59.3802ZM52.2852 62.2318C51.7429 61.9719 50.9387 61.6136 50.4981 61.4356C50.0575 61.2576 49.6971 61.0312 49.6971 60.9326C49.6971 60.4439 50.9511 58.0042 51.2641 57.8841C51.8378 57.6639 55.3662 59.0281 55.3662 59.4701C55.3662 59.5655 55.2148 59.8624 55.0297 60.1298C54.8446 60.3972 54.6096 60.8933 54.5076 61.2322C54.3195 61.8567 53.6863 62.714 53.4178 62.7077C53.3371 62.7058 52.8274 62.4917 52.2852 62.2318ZM71.0632 58.8537C70.9706 58.761 70.8948 58.3592 70.8948 57.9608C70.8948 57.1447 70.3536 54.921 69.629 52.7596C69.0721 51.0986 69.1672 50.2254 70.0546 48.8516C70.3811 48.3462 70.649 47.7361 70.6498 47.496C70.6507 47.2558 70.817 46.7416 71.0195 46.3533C71.4418 45.5437 71.4977 44.3978 71.1469 43.7423C71.0144 43.4948 70.4117 43.0026 69.8076 42.6485C69.2034 42.2945 68.6363 41.7753 68.5473 41.4948C68.3552 40.8896 68.5906 39.788 68.9121 39.788C69.2789 39.788 70.8583 41.5675 71.2865 42.4633C71.7967 43.5307 72.0487 43.227 72.1766 41.3902C72.3566 38.8062 73.3314 37.6567 74.3842 38.7868C75.067 39.5196 74.8962 40.3834 74.0492 40.4811C73.2676 40.5713 73.2137 40.7116 72.8668 43.5624C72.6048 45.7152 72.6082 45.7415 73.2404 46.4928C73.7193 47.062 73.8597 47.4725 73.8038 48.1398L73.7294 49.0286L72.004 49.2764C70.388 49.5085 70.2737 49.5662 70.2021 50.1861C70.1601 50.5501 70.3415 51.5484 70.6054 52.4044C71.2638 54.5409 71.8012 58.4525 71.4804 58.7734C71.3436 58.9102 71.1559 58.9463 71.0632 58.8537ZM72.004 47.6756C72.0878 47.54 71.9345 47.4291 71.6633 47.4291C71.3922 47.4291 71.1018 47.54 71.018 47.6756C70.9342 47.8111 71.0875 47.922 71.3587 47.922C71.6298 47.922 71.9202 47.8111 72.004 47.6756ZM59.3496 55.6247C58.9581 54.8718 58.7567 52.4251 59.0702 52.2314C59.5097 51.9597 59.8203 52.4386 59.8877 53.4919C59.9369 54.2609 60.0458 54.4539 60.4307 54.4539C60.8624 54.4539 60.9033 54.3075 60.8265 53.0366C60.757 51.8882 60.8127 51.6193 61.12 51.6193C61.5795 51.6193 61.8047 51.954 62.0054 52.935C62.0889 53.3434 62.2949 53.7235 62.4632 53.7796C62.6879 53.8545 62.7517 53.5063 62.7033 52.4686C62.6194 50.6672 63.0708 50.4231 63.7438 51.9061C64.3855 53.3201 64.3628 53.753 63.5942 54.7607C63.0377 55.4902 62.8423 55.5881 62.1769 55.47C61.6908 55.3838 61.228 55.4669 60.9266 55.6946C60.2841 56.18 59.623 56.1507 59.3496 55.6247ZM21.5439 46.5047C21.0981 46.1319 20.512 45.7047 20.2413 45.5553C19.5117 45.1526 19.5144 44.3795 20.2496 43.125C21.0271 41.7983 21.4717 41.7254 22.9771 42.6778C24.5178 43.6525 24.7189 44.1591 24.0381 45.3512C23.3812 46.5015 22.8293 47.1826 22.5541 47.1826C22.4442 47.1826 21.9896 46.8776 21.5439 46.5047ZM6.74642 39.6403C6.65997 39.5004 6.35635 38.7635 6.07169 38.0027C5.69705 37.0014 5.33597 36.4905 4.7641 36.1527C3.68862 35.5174 2.89874 34.0558 3.34216 33.5216C3.51955 33.3078 3.76732 33.1329 3.89276 33.1329C4.28753 33.1329 5.36554 34.4442 5.91283 35.5901C6.20217 36.1959 6.54983 36.6491 6.6854 36.5973C6.82096 36.5454 7.07527 35.7725 7.25052 34.8796C7.56318 33.2866 8.1606 32.3935 8.91346 32.3935C9.39068 32.3935 10.0129 33.0975 10.0129 33.6373C10.0129 34.0271 9.8879 34.0815 9.2741 33.9588C8.09366 33.7227 7.79552 34.1688 7.78811 36.1825C7.78173 37.916 7.09321 40.2014 6.74642 39.6403H6.74642ZM4.34379 32.2161C4.34379 32.1185 4.68791 31.7449 5.10852 31.386C5.77551 30.8167 5.87789 30.5637 5.90959 29.4066L5.94594 28.08L5.13229 28.1177C4.68479 28.1384 4.35559 28.083 4.40074 27.9944C4.4459 27.9059 4.63574 27.5285 4.82261 27.1557C5.30152 26.2002 6.18396 26.2383 6.52945 27.2294C6.67355 27.6428 6.726 28.3083 6.64599 28.7083C6.42952 29.7907 6.86702 29.6018 8.01109 28.1188C9.15853 26.6315 9.21269 26.3595 8.53403 25.4919C7.37322 24.0079 8.41049 21.7946 10.2668 21.7946C11.0577 21.7946 11.3261 22.649 10.9836 24.0769C10.6994 25.2614 10.7132 25.357 11.2292 25.7748C11.6215 26.0925 11.7291 26.3652 11.61 26.7404C11.4696 27.1826 11.3163 27.2392 10.6149 27.1076C9.85328 26.9647 9.73331 27.0315 9.14011 27.9278C8.32113 29.1654 6.71324 30.9146 6.39461 30.9146C6.26081 30.9146 5.82783 31.2442 5.43243 31.6472C4.72608 32.367 4.34379 32.5667 4.34379 32.2161ZM10.2142 23.9323C10.2769 23.4028 10.1907 23.2735 9.7751 23.2735C9.13628 23.2735 8.86518 23.8907 9.28291 24.3941C9.71559 24.9154 10.1216 24.7141 10.2142 23.9323ZM15.1184 28.4672C14.5339 27.7726 14.0203 25.7408 14.3104 25.2713C14.3859 25.1492 14.5633 24.1783 14.7047 23.1138C14.8461 22.0493 15.0902 20.8533 15.2471 20.4559L15.5325 19.7333L15.7193 20.432C15.8221 20.8163 15.8495 22.3061 15.7803 23.7427C15.6394 26.6678 15.8837 27.4212 16.8714 27.1077C17.2581 26.985 17.4498 26.6696 17.5613 25.9728C17.6461 25.4421 17.8126 25.0679 17.9313 25.1412C18.3112 25.376 18.1625 26.8729 17.6425 28.0486C17.2118 29.0221 17.0345 29.1892 16.4319 29.1892C15.9539 29.1892 15.5298 28.9561 15.1184 28.4672ZM28.3884 27.2611C28.5172 27.1497 29.1217 26.6802 29.7318 26.2177C30.3418 25.7553 31.1322 25.0978 31.4882 24.7566C31.8441 24.4154 32.5903 23.748 33.1464 23.2735C34.2724 22.3127 34.3977 21.832 33.6895 21.191C32.8574 20.438 32.8059 19.4274 33.5429 18.3138C34.0705 17.5166 34.3204 17.3424 34.8477 17.4044C35.7335 17.5086 36.5982 18.9348 36.1808 19.6032C35.7426 20.3047 35.8338 20.8422 36.5105 21.5486C37.0642 22.1265 37.0911 22.2411 36.7736 22.6712C36.4902 23.0552 36.358 23.0891 36.1077 22.8422C35.9359 22.6727 35.6234 22.5377 35.4132 22.5423C33.6412 23.8396 32.1703 25.396 30.1404 26.5648C28.4981 27.4402 27.9125 27.673 28.3884 27.2611ZM35.2455 19.1385C35.1083 18.9209 34.8653 18.6993 34.7056 18.6461C34.1946 18.4757 34.0996 19.3112 34.5516 20.001L34.9889 20.6684L35.242 20.1012C35.4131 19.7177 35.4143 19.406 35.2455 19.1385ZM46.62 25.9232C46.4144 25.3131 46.4111 24.853 46.602 23.4584C46.7087 22.6789 46.886 22.0411 46.996 22.0411C47.1061 22.0411 47.2535 21.847 47.3238 21.6097C47.3941 21.3725 47.4299 21.9548 47.4035 22.9038L47.3554 24.6292L48.1565 24.6268C49.0806 24.6241 49.166 24.9288 48.455 25.6919C47.9093 26.2777 46.787 26.4192 46.62 25.9232ZM57.6743 25.2036C56.7374 24.7499 56.6183 24.0556 57.1315 22.0377C57.778 19.4953 57.8614 19.3211 58.0742 20.0692C58.1706 20.4081 58.1553 20.7908 58.0402 20.9196C57.9252 21.0484 57.8311 21.3455 57.8311 21.5798C57.6652 22.3077 57.4452 22.4119 57.5846 23.158C57.5846 23.7439 58.2898 23.8739 58.8277 23.3871C59.5196 22.7609 59.5931 23.0018 59.1155 24.33C58.6798 25.5416 58.5432 25.6243 57.6743 25.2036ZM66.3275 20.0923C66.4176 19.8085 66.6338 19.5762 66.8081 19.5762C68.2374 20.1597 68.8218 21.9285 69.8757 22.7805C69.9931 22.7805 70.1449 22.0013 70.213 21.0488C70.2975 19.8672 70.4768 19.1624 70.7773 18.8304C71.364 18.1822 71.6475 18.2319 72.3365 19.1038C72.7833 19.6692 72.8516 19.9136 72.6356 20.1739C72.4816 20.3595 72.1531 20.4583 71.9056 20.3936C71.3623 20.2516 71.1511 20.8769 71.141 22.6573C71.133 24.0602 70.7106 25.0797 70.0875 25.1997C68.8831 24.0453 67.1285 21.7967 66.3275 20.0923ZM10.7524 20.7117C10.7524 20.6488 10.9342 20.4156 11.1564 20.1934C11.5946 19.7552 11.8249 18.5119 11.5994 17.8015C11.4387 17.2949 10.7467 17.2157 10.3087 17.6537C9.78911 18.1733 9.96941 17.0564 10.5156 16.3719L11.0074 15.7557L11.6181 16.4952C11.9614 16.9107 12.2294 17.5527 12.2301 17.9608L12.2313 18.687L13.094 17.8508C13.5685 17.391 13.9567 16.917 13.9567 16.7976C13.9567 16.6782 13.624 16.2477 13.2173 15.841C12.3851 15.0089 12.3053 14.4627 12.8593 13.3913C13.7795 11.6119 15.6821 12.2045 15.6821 14.2705C15.6821 14.8298 15.8071 15.4124 15.9598 15.5651C16.1192 15.7245 16.1682 16.1191 16.0749 16.4911C15.9492 16.992 15.8041 17.1051 15.4367 16.9885C15.1122 16.8855 14.8213 17.018 14.5206 17.4055C13.3803 18.875 10.7524 21.1808 10.7524 20.7117ZM14.4214 13.8896C13.7 13.4438 13.4858 14.1394 14.1416 14.7983C14.553 15.2117 14.5768 15.2053 14.6561 14.6589C14.7019 14.3438 14.5962 13.9977 14.4214 13.8896ZM25.295 19.2536C25.295 19.0762 25.4337 18.75 25.6031 18.5287C28.3979 16.2258 31.5862 14.5428 34.6174 12.6045C37.2084 10.9221 38.3025 10.3159 38.4575 10.4765C38.5122 10.5331 38.5956 10.847 38.6427 11.1739C38.7126 11.6584 38.5225 11.8861 37.6138 12.4063C34.5483 14.4426 31.3359 16.2437 28.2312 18.2206C26.2936 19.5475 25.295 19.8989 25.295 19.2536ZM22.3372 15.6163C22.3372 15.3362 22.4454 14.905 22.5776 14.658C22.7847 14.2709 25.9128 12.0931 27.3902 11.3073C27.9676 11.0002 27.928 10.5072 27.209 9.05002C26.7899 8.20063 26.4837 7.93658 25.513 7.58751C24.5591 7.2445 24.2983 7.02436 24.1737 6.45721C24.0284 5.79561 24.3634 5.03361 24.7995 5.03361C24.9005 5.03361 25.6079 5.64359 26.3715 6.38912C27.1351 7.13464 27.777 7.66151 27.7978 7.55992C27.8187 7.45834 27.852 6.70971 27.8718 5.89631C27.9327 3.38893 29.0131 2.10556 30.0751 3.27902C30.7073 3.97768 30.5038 4.6832 29.6971 4.58876C28.8513 4.48973 28.7004 4.90125 28.6134 7.54358C28.5747 8.72072 28.468 9.92033 28.3762 10.2094L28.2094 10.7349L29.2787 10.1916C29.8668 9.89278 30.958 9.25399 31.7036 8.77208C34.6796 6.84863 35.5611 6.58029 35.2846 7.68195C35.0634 8.56316 34.7443 8.92821 33.8184 9.35915C33.4009 9.55347 32.5047 10.0434 31.8269 10.448C31.149 10.8525 30.2617 11.3524 29.855 11.5588C29.4483 11.7653 28.7828 12.1551 28.3761 12.425C27.9694 12.695 27.3593 13.0508 27.0204 13.2158C26.6815 13.3807 25.5431 14.1028 24.4907 14.8205C23.4382 15.5382 22.5231 16.1254 22.4572 16.1254C22.3912 16.1254 22.3372 15.8963 22.3372 15.6163ZM57.5846 14.9016C57.5846 14.456 59.014 13.0458 59.9644 12.5538C60.4857 12.2839 60.9701 11.9855 61.0409 11.8906C61.1117 11.7957 61.7217 11.4619 62.3965 11.1488C63.0713 10.8357 63.9734 10.33 64.401 10.0249C65.4743 9.25933 65.7647 9.31562 65.6726 10.2714C65.6017 11.0068 65.4135 11.1681 63.377 12.2393C62.1569 12.8811 60.7019 13.6285 60.1436 13.9002C59.5854 14.172 58.9895 14.562 58.8194 14.7669C58.4774 15.179 57.5846 15.2764 57.5846 14.9016ZM19.807 13.1048C18.8184 12.3021 18.5911 11.2107 18.8962 8.73089C19.2395 5.94012 19.3499 5.47925 19.6331 5.65429C19.9141 5.82799 19.9584 6.75901 19.6857 6.75901C19.3872 6.75901 19.6498 10.8049 19.9617 11.0135C20.437 11.3313 21.7295 11.1121 21.6471 10.7276C21.6065 10.5379 21.6402 10.2083 21.722 9.99507C21.8478 9.66726 21.9041 9.66138 22.0868 9.95694C22.2163 10.1665 22.1948 10.5083 22.0331 10.8104C21.8848 11.0876 21.7374 11.5517 21.7055 11.8419C21.6441 12.4012 20.9088 13.6614 20.6451 13.6594C20.559 13.6587 20.1819 13.4091 19.807 13.1048ZM48.8676 5.5087C48.4041 5.14412 48.2206 4.77357 48.2268 4.21465C48.2378 3.21632 49.1624 -0.0120696 49.1865 0.863337C49.2039 1.49329 49.4005 1.64826 50.9911 2.2863C52.0166 2.69764 52.0396 4.5639 51.0303 5.46496C50.2584 6.15406 49.7023 6.1653 48.8676 5.5087ZM50.7032 4.54064C50.8276 4.54064 50.9278 4.45746 50.9257 4.35578C50.9164 3.90133 50.4727 3.54962 49.7182 3.39872C48.9433 3.24372 48.9107 3.26572 49.0859 3.82636C49.3036 4.5234 49.6925 4.82892 50.1486 4.6613C50.3291 4.59494 50.5787 4.54064 50.7032 4.54064ZM34.6868 4.56597C33.9157 3.79491 33.8398 3.02976 34.3634 1.30753C34.8296 -0.225818 34.8487 -0.248588 35.1152 0.412017C35.2656 0.784822 35.5385 1.08985 35.7216 1.08985C36.2335 1.08985 37.1263 2.16512 37.1263 2.78175C37.1263 3.43235 36.4696 4.78713 36.1542 4.78713C36.0332 4.78713 35.7673 4.85117 35.5634 4.92943C35.3594 5.00769 34.965 4.84414 34.6868 4.56597V4.56597ZM36.0219 2.92353C35.4698 2.5062 34.8758 2.54122 34.723 3.00011C34.6525 3.21166 34.9165 3.30576 35.5652 3.30038C36.4579 3.29297 36.4831 3.27216 36.0219 2.92353Z" fill="white"/>
</svg>
