<svg width="84" height="84" viewBox="0 0 84 84" fill="none" xmlns="http://www.w3.org/2000/svg">
<path d="M42 31.3853V35.8688L7.00278 17.7264L8.72479 14.7451C9.00806 14.2536 9.58356 14.0094 10.1341 14.1478L26.4557 18.2366C33.3938 19.9752 39.1347 24.8311 42 31.3853Z" fill="#EBE1DC"/>
<path d="M42 40.6279L2.89609 20.3572C2.41479 20.1079 2.22702 19.5151 2.47632 19.0332L3.51709 17.026C3.76703 16.5447 4.35919 16.3563 4.84112 16.6062L42 35.8688V40.6279Z" fill="#00676D"/>
<path d="M81.5237 19.0332L80.4829 17.026C80.233 16.5447 79.6408 16.3563 79.1589 16.6062L45.4363 34.0872V38.8463L81.1039 20.3572C81.5852 20.1079 81.7736 19.5151 81.5237 19.0332Z" fill="#00676D"/>
<path d="M42 50.0987L10.2129 69.9361C10.0745 70.0233 9.89117 69.9688 9.82196 69.8201C8.57611 67.1375 9.39065 63.9478 11.7702 62.1906L13.7556 60.7243C15.072 59.5508 15.9448 57.9602 16.2274 56.2196C16.4761 54.6866 17.4361 53.3613 18.8146 52.6468L33.7104 44.9249L42 50.0987ZM83.5584 20.4162L83.5257 20.3585C83.213 19.8176 82.5305 19.6176 81.9755 19.9054L45.4363 38.8463V42.4089L50.2896 44.9249L82.451 24.8535C83.9558 23.9147 84.4454 21.9517 83.5584 20.4162Z" fill="#974A32"/>
<path d="M42 50.0987L1.54898 24.8535C0.0442168 23.9147 -0.445407 21.9523 0.441556 20.4162L0.47424 20.3585C0.786984 19.8176 1.46951 19.6176 2.0245 19.9054L42 40.6279V50.0987ZM72.2298 62.1906L70.2444 60.7243C68.928 59.5508 68.0545 57.9602 67.7725 56.2196C67.5239 54.6866 66.5639 53.3613 65.1854 52.6468L45.4363 42.4089V52.243L73.7871 69.9361C73.9255 70.0233 74.1088 69.9688 74.178 69.8201C75.4239 67.1375 74.6093 63.9478 72.2298 62.1906Z" fill="#CB684A"/>
<path d="M44.8474 25.2265C44.1725 26.0295 43.5503 26.8761 42.9857 27.7599C42.3326 28.7808 42 29.9741 42 31.186V62.0323C42 62.1746 42.1628 62.2547 42.2756 62.1688L43.2144 61.4561C43.5124 61.2299 43.9245 61.2299 44.2225 61.4561L45.1614 62.1688C45.2742 62.2547 45.4363 62.1746 45.4363 62.0323V25.4432C45.4363 25.133 45.0473 24.9888 44.8474 25.2265Z" fill="#17B582"/>
<path d="M45.4363 34.0872L76.9972 17.7271L75.2752 14.7451C74.9919 14.2536 74.4164 14.01 73.8659 14.1478L57.5443 18.2372C52.7525 19.4376 48.533 22.1254 45.4363 25.8322V34.0872Z" fill="#DCD2CD"/>
<path d="M42 33.6463C37.0461 26.8742 29.9126 22.0606 21.7267 20.0099C21.0474 19.8394 20.3591 20.2521 20.1887 20.9314C20.0188 21.6101 20.4309 22.299 21.1102 22.4689C28.4975 24.3197 34.962 28.5898 39.5468 34.5967L42 35.8688V33.6463Z" fill="#DCD2CD"/>
<path d="M45.4363 32.9144C49.8699 28.0899 55.5704 24.6991 61.9259 23.1065C62.6052 22.9361 63.018 22.2478 62.8475 21.5691C62.6777 20.8898 61.9894 20.4771 61.31 20.6475C55.3339 22.1446 49.8962 25.1202 45.4363 29.3114V32.9144Z" fill="#C8BEB9"/>
</svg>
