<svg width="70" height="70" viewBox="0 0 70 70" fill="none" xmlns="http://www.w3.org/2000/svg">
<path d="M26.38 70H14.0753C12.9428 70 12.0246 69.0818 12.0246 67.9492C12.0246 64.5513 14.779 61.7969 18.1769 61.7969H26.38L30.4816 65.4712L26.38 70Z" fill="#FFE1BA"/>
<path d="M56.3214 32.5389L53.1634 34.918L47.3766 32.8148L48.0364 28.5195L51.3994 25.9766C53.1634 24.6641 55.7471 24.9512 57.1417 26.7969C58.5364 28.6426 58.1261 31.1855 56.3214 32.5389Z" fill="#FFBFAB"/>
<path d="M36.0187 39.1016C38.808 41.8085 43.2786 42.3006 46.6829 39.7987L49.882 37.3786L53.1634 34.9178L48.0364 28.5194L44.755 30.9802L41.7609 33.2363L38.5208 28.3965C37.0032 26.0993 34.46 24.7461 31.7121 24.7461H26.38H24.3292C19.8177 24.7461 16.1261 28.4374 16.1261 32.9492V53.5938C16.1261 58.1053 19.8177 61.7969 24.3292 61.7969H26.38V70H40.7355C45.2471 70 48.9386 66.3085 48.9386 61.7969C48.9386 57.285 45.2471 53.5938 40.7355 53.5938H36.6339C34.3781 53.5938 32.5324 51.748 32.5324 49.4922V35.6971L36.0187 39.1016Z" fill="#FFF5F5"/>
<path d="M48.9386 61.7969C48.9386 57.285 45.2471 53.5938 40.7355 53.5938H36.6339C34.3781 53.5938 32.5324 51.748 32.5324 49.4922V35.6971L36.0187 39.1016C38.808 41.8085 43.2786 42.3006 46.6829 39.7987L49.882 37.3786L53.1634 34.9178L48.0364 28.5194L44.755 30.9802L41.7609 33.2363L38.5208 28.3965C37.0032 26.0993 34.46 24.7461 31.7121 24.7461H26.38V61.7969V70H40.7355C45.2472 70 48.9386 66.3085 48.9386 61.7969Z" fill="#EFE2DD"/>
<path d="M30.4816 8.33984H26.38H22.2785L18.1769 12.4414V16.543C18.1769 21.0671 21.8559 24.7461 26.38 24.7461C30.9042 24.7461 34.5831 21.0671 34.5831 16.543V12.4414L30.4816 8.33984Z" fill="#FFE1BA"/>
<path d="M34.5831 16.543V12.4414L30.4816 8.33984H26.38V24.7461C30.9042 24.7461 34.5831 21.0671 34.5831 16.543Z" fill="#FFBFAB"/>
<path d="M32.5324 0H26.38H20.2277C19.0941 0 18.1769 0.917246 18.1769 2.05078V12.4414H26.38H34.5831V2.05078C34.5831 0.917246 33.6659 0 32.5324 0Z" fill="#636366"/>
<path d="M34.5831 2.05078C34.5831 0.917246 33.6659 0 32.5324 0H26.38V12.4414H34.5831V2.05078Z" fill="black"/>
</svg>
